# AST/ASF file generated using VICON BodyLanguage
# -----------------------------------------------
:version 1.10
:name VICON
:units
  mass 1.0
  length 0.45
  angle deg
:documentation
   .ast/.asf automatically generated from VICON data using
   VICON BodyBuilder and BodyLanguage model FoxedUp or BRILLIANT.MOD
:root
   order TX TY TZ RX RY RZ
   axis XYZ
   position 0 0 0  
   orientation 0 0 0 
:bonedata
  begin
     id 1 
     name lhipjoint
     direction 0.528046 -0.759594 0.379717 
     length 2.39752 
     axis 0 0 0  XYZ
  end
  begin
     id 2 
     name lfemur
     direction 0.34202 -0.939693 0  
     length 7.31175  
     axis 0 0 20  XYZ
    dof rx ry rz
    limits (-160.0 20.0)
           (-70.0 70.0)
           (-60.0 70.0)
  end
  begin
     id 3 
     name ltibia
     direction 0.34202 -0.939693 0   
     length 7.52482   
     axis 0 0 20   XYZ
    dof rx
    limits (-10.0 170.0)
  end
  begin
     id 4 
     name lfoot
     direction 0.0675379 -0.185559 0.980309   
     length 2.00961   
     axis -90 7.62852e-016 20   XYZ
    dof rx rz
    limits (-45.0 90.0)
           (-70.0 20.0)
  end
  begin
     id 5 
     name ltoes
     direction 1.5352e-011 -4.22286e-011 1   
     length 1.01383   
     axis -90 7.62852e-016 20   XYZ
    dof rx
    limits (-90.0 20.0)
  end
  begin
     id 6 
     name rhipjoint
     direction -0.510274 -0.769251 0.384544   
     length 2.36742  
     axis 0 0 0  XYZ 
  end
  begin
     id 7 
     name rfemur
     direction -0.34202 -0.939693 0   
     length 7.45325   
     axis 0 0 -20   XYZ
    dof rx ry rz
    limits (-160.0 20.0)
           (-70.0 70.0)
           (-70.0 60.0)
  end
  begin
     id 8 
     name rtibia
     direction -0.34202 -0.939693 0   
     length 7.49587   
     axis 0 0 -20   XYZ
    dof rx
    limits (-10.0 170.0)
 end
 begin
     id 9 
     name rfoot
     direction -0.106475 -0.292536 0.950308   
     length 2.20898  
     axis -90 -7.62852e-016 -20   XYZ
    dof rx rz
    limits (-45.0 90.0)
           (-20.0 70.0)
  end
  begin
     id 10 
     name rtoes
     direction -1.53597e-011 -4.22023e-011 1   
     length 1.10065   
     axis -90 -7.62852e-016 -20   XYZ
    dof rx
    limits (-90.0 20.0)
  end
  begin
     id 11 
     name lowerback
     direction 0.0260024 0.998026 -0.0571652   
     length 2.11214   
     axis 0 0 0   XYZ
    dof rx ry rz
    limits (-20.0 45.0)
           (-30.0 30.0)
           (-30.0 30.0)
  end
  begin
     id 12 
     name upperback
     direction 0.0216202 0.999542 -0.0211766   
     length 2.11689   
     axis 0 0 0   XYZ
    dof rx ry rz
    limits (-20.0 45.0)
           (-30.0 30.0)
           (-30.0 30.0)
  end
  begin
     id 13 
     name thorax
     direction 0.00883312 0.999944 0.00589057   
     length 2.11821   
     axis 0 0 0   XYZ
    dof rx ry rz
    limits (-20.0 45.0)
           (-30.0 30.0)
           (-30.0 30.0)
  end
  begin
     id 14 
     name lowerneck
     direction -0.059386 0.994433 0.0870401   
     length 1.81176   
     axis 0 0 0   XYZ
    dof rx ry rz
    limits (-20.0 45.0)
           (-30.0 30.0)
           (-30.0 30.0)
  end
  begin
     id 15 
     name upperneck
     direction 0.0506457 0.97328 -0.223967   
     length 1.82382   
     axis 0 0 0   XYZ
    dof rx ry rz
    limits (-20.0 45.0)
           (-30.0 30.0)
           (-30.0 30.0)
  end
  begin
     id 16
     name head
     direction 0.0205902 0.996147 -0.0852487  
     length 1.84805  
     axis 0 0 0   XYZ
    dof rx ry rz
    limits (-20.0 45.0)
           (-30.0 30.0)
           (-30.0 30.0)
  end
  begin
     id 17 
     name lclavicle
     direction 0.949493 0.303881 -0.0782325  
     length 3.60584  
     axis 0 0 0   XYZ
    dof ry rz
    limits (-20.0 10.0)
           (0.0 20.0)
  end
  begin
     id 18 
     name lhumerus
     direction 1 -4.48965e-011 1.48782e-027   
     length 4.95681   
     axis 180 -30 -90   XYZ
    dof rx ry rz
    limits (-60.0 90.0)
           (-90.0 90.0)
           (-90.0 90.0)
  end
  begin
     id 19
     name lradius
     direction 1 -4.48952e-011 2.06528e-027   
     length 3.40915   
     axis 180 -30 -90   XYZ
    dof rx
    limits (-10.0 170.0)
  end
  begin
     id 20
     name lwrist
     direction 1 -4.48964e-011 1.28021e-027   
     length 1.70457   
     axis -1.61767e-015 90 90   XYZ
    dof ry
    limits (-180.0 0.0)
 end
  begin
     id 21 
     name lhand
     direction 1 -4.49094e-011 2.54887e-027   
     length 0.616403   
     axis -1.63363e-015 90 90   XYZ
    dof rx rz
    limits (-90.0 90.0)
           (-45.0 45.0)
  end
  begin
     id 22 
     name lfingers
     direction 1 -4.49002e-011 5.11407e-027   
     length 0.49696   
     axis -3.26723e-015 90 90   XYZ
    dof rx
    limits (0.0 90.0)
  end
  begin
     id 23
     name lthumb
     direction 0.707107 -6.34998e-011 0.707107   
     length 0.713539   
     axis -90 45 -2.25915e-014   XYZ
    dof rx rz
    limits (-45.0 45.0)
           (-45.0 45.0)
  end
  begin
     id 24 
     name rclavicle
     direction -0.937751 0.334612 -0.0930482   
     length 3.46287  
     axis 0 0 0   XYZ 
    dof ry rz
    limits (-10.0 20.0)
           (-20.0 0.0)
  end
  begin
     id 25 
     name rhumerus
     direction -1 -4.48962e-011 3.59972e-027  
     length 5.352   
     axis 180 30 90   XYZ
    dof rx ry rz
    limits (-90.0 60.0)
           (-90.0 90.0)
           (-90.0 90.0)
  end
  begin
     id 26 
     name rradius
     direction -1 -4.48987e-011 -3.76925e-027   
     length 3.43721   
     axis 180 30 90   XYZ
    dof rx
    limits (-10.0 170.0)
  end
  begin
     id 27 
     name rwrist
     direction -1 -4.48943e-011 1.28112e-027   
     length 1.7186   
     axis -1.61767e-015 -90 -90   XYZ
    dof ry
    limits (-180.0 0.0)
  end
  begin
     id 28
     name rhand
     direction -1 -4.49027e-011 2.55483e-027   
     length 0.72009   
     axis -1.63363e-015 -90 -90   XYZ
    dof rx rz
    limits (-90.0 90.0)
           (-45.0 45.0)
  end
  begin
     id 29
     name rfingers
     direction -1 -4.48827e-011 5.14506e-027   
     length 0.580555   
     axis -3.26723e-015 -90 -90   XYZ
    dof rx
    limits (0.0 90.0)
  end
  begin
     id 30
     name rthumb
     direction -0.707107 -6.34936e-011 0.707107   
     length 0.833564   
     axis -90 -45 2.25915e-014   XYZ
    dof rx rz
    limits (-45.0 45.0)
           (-45.0 45.0)
  end
:hierarchy
  begin
    root lhipjoint rhipjoint lowerback
    lhipjoint lfemur
    lfemur ltibia
    ltibia lfoot
    lfoot ltoes
    rhipjoint rfemur
    rfemur rtibia
    rtibia rfoot
    rfoot rtoes
    lowerback upperback
    upperback thorax
    thorax lowerneck lclavicle rclavicle
    lowerneck upperneck
    upperneck head
    lclavicle lhumerus
    lhumerus lradius
    lradius lwrist
    lwrist lhand lthumb
    lhand lfingers
    rclavicle rhumerus
    rhumerus rradius
    rradius rwrist
    rwrist rhand rthumb
    rhand rfingers
  end

#!OML:ASF H:\Terrain\Patient Classification 1\Terrain2\Thursday\justin.ASF
:FULLY-SPECIFIED
:DEGREES
1
root -3.00211 17.4169 10.7928 -51.2971 85.0824 -52.803
lowerback 4.41203 0.486304 2.78809
upperback 1.84793 0.877854 3.51237
thorax -0.589162 0.474676 2.00218
lowerneck -12.8295 -2.93519 -9.32754
upperneck 36.9783 -1.38407 3.37904
head 15.2134 -0.933344 2.99301
rclavicle -4.57205e-015 -2.14687e-014
rhumerus -24.9104 -4.50059 -82.0333
rradius 32.6235
rwrist -14.5936
rhand -23.3479 15.3022
rfingers 7.12502
rthumb 3.10711 -14.6549
lclavicle -4.57205e-015 -2.14687e-014
lhumerus -36.5006 11.9293 81.9257
lradius 29.7937
lwrist 1.81308
lhand -15.6672 20.3079
lfingers 7.12502
lthumb 10.5212 50.0246
rfemur -11.9671 -7.32537 24.53
rtibia 37.3254
rfoot -23.3919 0.703051
rtoes 10.6116
lfemur -11.2137 -1.66344 -15.5998
ltibia 34.6967
lfoot -20.4422 -3.43937
ltoes 11.5393
2
root -2.9999 17.4184 10.7922 -50.3329 85.1466 -51.8972
lowerback 4.36832 0.464036 2.68939
upperback 1.82558 0.840341 3.47388
thorax -0.58803 0.454672 2.01985
lowerneck -12.9064 -2.93244 -9.4038
upperneck 37.0193 -1.36402 3.41755
head 15.2519 -0.931971 3.0278
rclavicle -4.37326e-015 -8.74653e-015
rhumerus -24.9353 -4.46172 -82.0494
rradius 32.5044
rwrist -14.8818
rhand -23.1846 15.3684
rfingers 7.12502
rthumb 3.26481 -14.5863
lclavicle -4.37326e-015 -8.74653e-015
lhumerus -36.4282 11.4564 82.1229
lradius 30.1829
lwrist 2.12129
lhand -15.8499 20.7352
lfingers 7.12502
lthumb 10.345 50.4608
rfemur -12.047 -7.31138 24.4151
rtibia 37.4016
rfoot -23.5358 0.817187
rtoes 10.3655
lfemur -11.2439 -1.48422 -15.7022
ltibia 34.6151
lfoot -20.3505 -3.53033
ltoes 10.9229
3
root -3.00133 17.4201 10.7933 -49.2013 85.35 -50.8268
lowerback 4.37226 0.432811 2.48928
upperback 1.77222 0.787958 3.38667
thorax -0.645735 0.425784 2.04419
lowerneck -12.8855 -2.91227 -9.47689
upperneck 37.0149 -1.36248 3.54416
head 15.2458 -0.924638 3.09496
rclavicle 1.78906e-015 7.15625e-015
rhumerus -25.0182 -4.38916 -82.1123
rradius 32.3984
rwrist -15.1145
rhand -23.3902 15.3555
rfingers 7.12502
rthumb 3.06631 -14.6022
lclavicle 1.78906e-015 7.15625e-015
lhumerus -36.3276 11.0825 82.2728
lradius 30.4738
lwrist 2.34913
lhand -16.3692 21.0119
lfingers 7.12502
lthumb 9.84401 50.7618
rfemur -12.1498 -7.27763 24.1899
rtibia 37.4835
rfoot -23.5391 1.02034
rtoes 11.845
lfemur -11.3035 -1.49109 -15.9263
ltibia 34.5329
lfoot -20.2562 -3.70087
ltoes 10.8233
4
root -3.00074 17.4188 10.7915 -48.1006 85.4669 -49.7102
lowerback 4.44589 0.406458 2.31791
upperback 1.73559 0.748338 3.35462
thorax -0.725571 0.404245 2.10834
lowerneck -12.8915 -2.88061 -9.43811
upperneck 37.0633 -1.30847 3.50957
head 15.2652 -0.900998 3.08413
rclavicle 3.47873e-015 4.77083e-015
rhumerus -25.1576 -4.26264 -82.1331
rradius 32.3231
rwrist -15.2458
rhand -23.7717 15.1001
rfingers 7.12502
rthumb 2.6978 -14.8626
lclavicle 3.47873e-015 4.77083e-015
lhumerus -36.2382 10.5455 82.4895
lradius 30.7411
lwrist 2.67359
lhand -16.6529 20.8575
lfingers 7.12502
lthumb 9.57029 50.6202
rfemur -12.1595 -7.30017 24.0128
rtibia 37.5417
rfoot -23.5611 1.12218
rtoes 12.7385
lfemur -11.2456 -1.59418 -16.1002
ltibia 34.4722
lfoot -20.2503 -3.69536
ltoes 10.9149
5
root -2.9937 17.4173 10.7889 -47.97 85.3522 -49.5549
lowerback 4.46374 0.387106 2.31631
upperback 1.7089 0.72645 3.42088
thorax -0.763403 0.393533 2.17846
lowerneck -12.8687 -2.83312 -9.38613
upperneck 37.099 -1.20658 3.39237
head 15.2675 -0.865992 3.04276
rclavicle 2.38542e-015 3.02153e-014
rhumerus -25.2765 -4.20916 -82.0641
rradius 32.1399
rwrist -15.05
rhand -23.7664 14.9475
rfingers 7.12502
rthumb 2.70301 -15.0151
lclavicle 2.38542e-015 3.02153e-014
lhumerus -36.2386 10.3135 82.6571
lradius 31.024
lwrist 2.73614
lhand -16.3114 20.78
lfingers 7.12502
lthumb 9.89977 50.5273
rfemur -12.129 -7.43536 24.0581
rtibia 37.5828
rfoot -23.5857 1.2404
rtoes 12.5364
lfemur -11.1218 -1.60253 -16.0423
ltibia 34.4204
lfoot -20.3585 -3.51837
ltoes 10.8425
6
root -2.98513 17.4191 10.7877 -47.5099 85.2972 -49.1885
lowerback 4.32307 0.374708 2.27411
upperback 1.66716 0.703093 3.45159
thorax -0.728094 0.381503 2.23585
lowerneck -12.8012 -2.78593 -9.38464
upperneck 37.0545 -1.12968 3.34943
head 15.2228 -0.838309 3.03461
rclavicle -6.4605e-015 -2.70347e-014
rhumerus -25.3354 -4.30181 -81.9905
rradius 31.9025
rwrist -14.8679
rhand -23.7103 14.8225
rfingers 7.12502
rthumb 2.75713 -15.1394
lclavicle -6.4605e-015 -2.70347e-014
lhumerus -36.2161 10.304 82.7329
lradius 31.3006
lwrist 2.80297
lhand -16.3708 21.0157
lfingers 7.12502
lthumb 9.84242 50.7656
rfemur -12.209 -7.51695 24.0708
rtibia 37.583
rfoot -23.5408 1.36149
rtoes 12.3346
lfemur -11.1611 -1.56262 -16.038
ltibia 34.4033
lfoot -20.4634 -3.31887
ltoes 10.1174
